PathFileType	4	(X/Y/Z)	C:/Users/opensim2020/Desktop/walking_exp_matlab/subject01/subject01_trc/subject01_walking17_run_cyclic.trc	
DataRate	CameraRate	NumFrames	NumMarkers	Units	OrigDataRate	OrigDataStartFrame	OrigNumFrames	
100.00	100.00	4	61	mm	100.00	322	58	
Frame#	Time	LTHI			LKNE			RELB			STRN			RWRA			LSHO			RFRM			RUPA			RSHO			RASI			RBHD			RFIN			LFHD			RFHD			CLAV			LHEE			RWRB			LASI			LBHD			LWRA			LTIB			RTHI			LWRB			LTOE			RKNE			C7			LFRM			LFIN			LUPA			LELB			RTIB			RTOE			RBAK			RANK			T10			LPSI			LANK			RHEE			RPSI			*39			*40			*41			*42			*43			*44			*45			*46			*47			*48			*49			*50			*51			*52			*53			*54			*55			*56			*57			*58			*59			*60			
		X1	Y1	Z1	X2	Y2	Z2	X3	Y3	Z3	X4	Y4	Z4	X5	Y5	Z5	X6	Y6	Z6	X7	Y7	Z7	X8	Y8	Z8	X9	Y9	Z9	X10	Y10	Z10	X11	Y11	Z11	X12	Y12	Z12	X13	Y13	Z13	X14	Y14	Z14	X15	Y15	Z15	X16	Y16	Z16	X17	Y17	Z17	X18	Y18	Z18	X19	Y19	Z19	X20	Y20	Z20	X21	Y21	Z21	X22	Y22	Z22	X23	Y23	Z23	X24	Y24	Z24	X25	Y25	Z25	X26	Y26	Z26	X27	Y27	Z27	X28	Y28	Z28	X29	Y29	Z29	X30	Y30	Z30	X31	Y31	Z31	X32	Y32	Z32	X33	Y33	Z33	X34	Y34	Z34	X35	Y35	Z35	X36	Y36	Z36	X37	Y37	Z37	X38	Y38	Z38	X39	Y39	Z39	X40	Y40	Z40	X41	Y41	Z41	X42	Y42	Z42	X43	Y43	Z43	X44	Y44	Z44	X45	Y45	Z45	X46	Y46	Z46	X47	Y47	Z47	X48	Y48	Z48	X49	Y49	Z49	X50	Y50	Z50	X51	Y51	Z51	X52	Y52	Z52	X53	Y53	Z53	X54	Y54	Z54	X55	Y55	Z55	X56	Y56	Z56	X57	Y57	Z57	X58	Y58	Z58	X59	Y59	Z59	X60	Y60	Z60	X61	Y61	Z61	

39	0.380	-558.17670	242.55203	574.38318	-540.75623	191.96414	446.77676	-108.09933	82.64687	1198.03442	-384.10245	423.69998	1182.52893	-114.06512	205.56584	971.72815	-553.23981	381.77133	1362.00989	-79.11530	111.10361	1072.76453	-156.76463	161.11543	1289.89478	-257.66159	318.80911	1372.63599	-316.87906	331.60199	927.69739	-338.40283	273.78302	1596.62122	-69.87811	233.60884	906.33856	-471.38950	361.64188	1650.30151	-360.53772	376.96692	1664.82373	-389.45169	398.99249	1341.65454	-447.37711	-218.59325	365.69791	-73.49039	166.05086	958.70135	-516.77087	329.80521	919.06329	-456.26746	259.16327	1584.98279	-477.46902	500.38947	1122.01367	-547.26410	8.60578	394.28329	-254.29623	438.01523	631.29803	-488.25320	528.61743	1070.67310	-484.40598	-239.49921	174.76004	-293.46747	537.62860	512.56934	-424.85971	262.39719	1414.46997	-590.86627	464.09665	1056.94116	-431.86057	563.96039	1119.17725	-660.53845	383.21747	1199.97021	-686.14392	384.78458	1050.29724	-279.68936	539.43292	339.11713	-356.47107	718.72955	74.52682	-364.19446	176.50313	1245.26428	-324.92828	582.07330	134.24643	-434.61887	185.24911	1143.73560	-470.95828	158.59283	959.26978	-500.08701	-198.66710	328.58771	-376.15759	535.41125	103.27283	-329.03674	160.67049	948.39630	-3102.01514	1973.16235	1023.36993	-3140.74146	2012.60828	1022.12225				-384.14526	356.54196	1696.57788																																																						 
40	0.390	-562.16583	302.87292	571.01349	-545.60394	256.79468	442.16241	-105.20782	135.82895	1181.52087	-386.85934	469.80145	1179.69727	-118.27745	266.99344	960.40753	-553.44293	423.61050	1360.48291	-79.70045	169.15036	1056.84253	-151.84059	210.18166	1276.56250	-255.89136	364.46149	1367.89771	-317.11172	379.96918	923.96106	-335.29382	319.55554	1594.71191	-75.68848	297.99222	895.78058	-469.13086	406.58585	1647.94971	-358.32712	423.12814	1662.18616	-389.70117	443.46573	1338.69727	-447.10049	-154.36327	380.17297	-77.15639	228.66493	945.13190	-518.42841	377.67941	919.28992	-453.01968	303.76990	1583.46631	-483.33762	540.10968	1100.82312	-548.83344	73.21638	400.52960	-256.24649	476.39258	620.37134	-498.68765	564.06403	1048.37610	-493.64755	-180.35333	191.21358	-293.08340	572.25848	499.25858	-421.51129	306.39282	1412.20544	-600.07739	495.94141	1045.87378	-439.24185	604.20795	1089.45947	-664.57178	416.28925	1200.88379	-693.49188	414.03265	1051.63354	-281.00583	567.88776	324.20569	-359.56589	736.49182	50.32422	-360.76871	221.81247	1241.89307	-327.38626	603.36841	117.74741	-431.17877	231.09087	1142.17297	-470.62155	206.29608	955.78033	-501.16443	-134.93115	343.87061	-379.27710	556.07452	90.50214	-328.83923	208.74776	943.21399	-3101.93164	1973.16980	1023.59167	-3140.54492	2012.58801	1022.16559				-381.35034	402.61676	1694.20984																																																						 
41	0.400	-567.16370	363.08514	567.52893	-550.96997	322.60703	437.64160	-101.73551	190.34846	1163.31897	-390.14307	516.07922	1175.80664	-123.25000	330.47427	949.14270	-553.78046	464.40442	1358.37891	-80.43822	229.58548	1039.66406	-147.16335	259.43814	1261.48950	-253.96404	410.11670	1362.16785	-317.68222	427.93182	918.90546	-332.14786	365.25861	1591.88501	-83.19743	364.92410	884.81256	-466.81927	451.29126	1644.75391	-356.05862	469.12778	1658.49585	-390.42917	488.06204	1334.24731	-447.38171	-86.41666	392.39603	-81.76898	293.59497	930.95380	-519.87189	425.26349	918.76202	-449.71844	348.12112	1581.09131	-491.44736	578.14398	1076.57288	-550.66833	141.24246	404.87927	-260.60574	515.90289	611.12659	-512.07239	597.74579	1024.19592	-501.28024	-117.92077	205.66714	-292.04578	604.31256	484.13031	-417.96249	349.76346	1408.46875	-610.86804	526.08618	1034.22144	-450.35587	642.39410	1056.61169	-668.57520	448.62143	1201.57312	-700.87128	442.18414	1053.13391	-282.34027	593.96710	307.53375	-360.37970	760.08087	39.50686	-356.47406	267.19962	1236.99109	-330.63947	618.75293	99.95872	-427.39102	277.06555	1138.89832	-470.43814	253.70789	950.09290	-502.69766	-67.81253	356.51993	-380.00620	568.60150	71.60017	-328.80072	256.96826	937.18817	-3101.93555	1973.20288	1023.64972	-3140.76514	2012.43726	1022.01978				-378.78955	449.05115	1690.92151																																																						 
42	0.410	-572.18243	423.52979	564.00281	-556.76263	390.08511	433.06207	-97.91819	246.36601	1143.73242	-393.75156	562.44379	1171.07849	-129.17622	396.17789	937.77344	-554.25452	504.44968	1355.93787	-81.74628	292.13632	1021.59833	-142.69566	309.54297	1244.87292	-252.07275	455.91696	1355.55066	-318.13763	475.64175	913.77637	-328.90613	410.75705	1588.26208	-91.86159	434.08231	874.27393	-464.51511	495.85590	1640.79333	-353.79355	514.91193	1654.08398	-391.28766	532.68506	1329.15271	-447.79337	-15.91581	402.08981	-87.53806	361.17941	916.68152	-521.59680	472.95728	916.68024	-446.44315	392.27237	1577.83655	-502.60547	614.16888	1050.61536	-553.17828	211.94157	407.07901	-263.26880	555.94611	602.28308	-527.52936	628.08734	998.45654	-507.85278	-51.65493	217.54494	-290.56003	635.44702	467.86215	-414.26282	392.89597	1403.31567	-623.23822	554.94830	1022.60284	-465.69943	677.91467	1021.70209	-672.18976	480.17612	1202.07507	-708.50299	469.41891	1054.85095	-284.73401	616.34174	289.89026	-358.03345	770.03046	38.38272	-351.43106	312.55096	1230.38843	-336.32309	624.81787	81.84097	-423.61105	323.03986	1133.65234	-470.50919	300.58124	942.69971	-504.34052	1.97881	366.62433	-383.55969	574.85400	51.45909	-328.41681	304.53018	930.09174	-3101.88037	1973.18225	1023.61188	-3140.70557	2012.37622	1022.01001				-376.14114	495.41156	1686.68298																																																						 
